<svg width="115" height="152" viewBox="0 0 115 152" fill="none" xmlns="http://www.w3.org/2000/svg">
<path d="M94.3907 20.5017L97.9407 13.0817L81.0307 3.32164C79.1941 2.24739 77.2237 1.42025 75.1707 0.861644C74.4607 0.671644 73.7307 0.511648 73.0007 0.381648C69.368 -0.21359 65.6552 -0.111782 62.0607 0.681644C60.7248 0.959143 59.406 1.31306 58.1107 1.74165C56.724 2.1929 55.3621 2.71696 54.0307 3.31165C52.2353 4.09954 50.4888 4.99449 48.8007 5.99165C46.9201 7.08999 45.0977 8.28492 43.3407 9.57164C42.0073 10.565 40.674 11.615 39.3407 12.7217C20.0407 29.0117 4.86067 58.0716 1.01067 86.0116C0.743999 87.9116 0.534009 89.805 0.380676 91.6916C0.150676 94.3916 0.0406738 97.0716 0.0506738 99.6916C0.0506738 101.862 0.140668 103.962 0.310668 105.982C0.450668 107.732 0.650665 109.432 0.900665 111.072C1.15066 112.712 1.46067 114.272 1.81067 115.792C2.74817 119.984 4.26968 124.023 6.33066 127.792C6.74066 128.542 7.18068 129.262 7.63068 129.952C9.46958 132.816 11.7985 135.335 14.5107 137.392C15.3241 137.991 16.1722 138.542 17.0507 139.042V139.042L33.1107 148.302L36.3607 141.512C37.2307 141.322 38.1007 141.102 38.9807 140.832C42.5563 139.728 45.9899 138.207 49.2107 136.302C51.2831 135.08 53.2862 133.745 55.2107 132.302C57.7989 130.36 60.2637 128.26 62.5907 126.012C78.7007 110.512 91.3807 86.2616 96.0207 62.1216C96.7137 58.5802 97.2244 55.0055 97.5507 51.4116C97.8107 48.4116 97.9507 45.5117 97.9407 42.6117C97.9519 38.4312 97.6174 34.257 96.9407 30.1316C96.3855 26.8507 95.532 23.6274 94.3907 20.5017Z" fill="#B0BEC5"/>
<path opacity="0.25" d="M4.55066 69.4817L37.4507 88.4817L41.6107 76.4817L8.67068 57.4817C7.11068 61.4017 5.72066 65.4217 4.55066 69.4817Z" fill="white"/>
<path opacity="0.25" d="M81.0306 3.32164C79.194 2.24739 77.2237 1.42025 75.1706 0.861644C74.4606 0.671644 73.7306 0.511648 73.0006 0.381648C69.3679 -0.21359 65.6552 -0.111782 62.0606 0.681644C61.5806 0.781644 61.0606 0.901642 60.6106 1.03164L94.4206 20.5516C94.4171 20.5251 94.4171 20.4982 94.4206 20.4717L97.9706 13.0516L81.0306 3.32164Z" fill="white"/>
<path opacity="0.25" d="M79.0106 50.1716L83.1706 45.1716L34.5106 17.1716C33.0106 18.665 31.5406 20.2283 30.1006 21.8616L79.0106 50.1716Z" fill="white"/>
<path opacity="0.25" d="M20.0607 35.2415L62.3907 59.6815L66.9007 47.8915L27.3907 25.0715C24.7645 28.3259 22.3175 31.721 20.0607 35.2415V35.2415Z" fill="white"/>
<path opacity="0.4" d="M81.0307 3.32164C79.1941 2.24739 77.2238 1.42025 75.1707 0.861644C74.4607 0.671644 73.7307 0.511648 73.0007 0.381648C69.368 -0.21359 65.6553 -0.111782 62.0607 0.681644C60.7248 0.959143 59.406 1.31306 58.1107 1.74165C56.7241 2.1929 55.3621 2.71696 54.0307 3.31165C52.2353 4.09954 50.4888 4.99449 48.8007 5.99165C46.9201 7.08999 45.0977 8.28492 43.3407 9.57164C42.0073 10.565 40.674 11.615 39.3407 12.7217C21.3407 27.8917 6.97069 54.1216 1.96069 80.2016L69.1207 119.012C82.1207 103.722 92.0307 82.8916 96.0207 62.1316C96.7138 58.5902 97.2244 55.0155 97.5507 51.4216C97.8107 48.4216 97.9507 45.5216 97.9407 42.6216C97.9519 38.4412 97.6175 34.267 96.9407 30.1417C96.3959 26.8583 95.5524 23.6316 94.4207 20.5017L97.9707 13.0817L81.0307 3.32164Z" fill="white"/>
<path opacity="0.1" d="M33.1106 148.302L36.3606 141.512C37.2306 141.322 38.1006 141.102 38.9806 140.832C42.5563 139.728 45.9898 138.207 49.2106 136.302C51.2831 135.08 53.2862 133.745 55.2106 132.302C57.7989 130.36 60.2637 128.26 62.5906 126.012C64.8856 123.792 67.0651 121.455 69.1206 119.012L1.96063 80.2317C1.5873 82.1517 1.25397 84.0717 0.960632 85.9917C0.667298 87.9117 0.457293 89.805 0.330627 91.6717C0.100627 94.3717 -0.00937501 97.0517 0.000624991 99.6717C0.000624991 101.842 0.0906195 103.942 0.260619 105.962C0.400619 107.712 0.600631 109.412 0.850631 111.052C1.10063 112.692 1.41062 114.252 1.76062 115.772C2.69812 119.964 4.21965 124.003 6.28062 127.772C6.69062 128.522 7.13061 129.242 7.58061 129.932C9.41952 132.796 11.7484 135.315 14.4606 137.372C15.274 137.971 16.1222 138.522 17.0006 139.022V139.022L33.1106 148.302Z" fill="black"/>
<path opacity="0.1" d="M6.33057 127.772C6.74057 128.522 7.18058 129.242 7.63058 129.932C9.46949 132.796 11.7984 135.315 14.5106 137.372C15.324 137.971 16.1721 138.522 17.0506 139.022V139.022L33.1106 148.282L36.3606 141.492H36.4906L36.7306 138.712L2.72058 119.012C3.60213 122.054 4.81259 124.992 6.33057 127.772V127.772Z" fill="black"/>
<path d="M113.531 39.7315C112.844 35.4648 111.621 31.3019 109.891 27.3415C107.825 22.3984 104.543 18.0574 100.351 14.7215C97.8016 12.7569 94.889 11.3159 91.7807 10.4815C91.0707 10.2915 90.3407 10.1415 89.6107 10.0115C85.979 9.40785 82.2653 9.50629 78.6707 10.3015C77.335 10.5838 76.0162 10.941 74.7207 11.3715C73.3368 11.8177 71.9782 12.3384 70.6507 12.9315C68.8558 13.7273 67.1064 14.622 65.4107 15.6115C63.5293 16.7121 61.7068 17.9104 59.9507 19.2015C58.6107 20.2015 57.2707 21.2015 55.9507 22.3415C36.6507 38.6315 21.4707 67.6616 17.6207 95.5816C17.3473 97.4949 17.1373 99.3882 16.9907 101.262C16.764 103.928 16.654 106.595 16.6607 109.262C16.6607 111.422 16.7607 113.522 16.9207 115.542C17.0607 117.302 17.2607 118.992 17.5107 120.632C17.7607 122.272 18.0707 123.842 18.4307 125.362C19.3675 129.552 20.8856 133.591 22.9407 137.362C23.3607 138.102 23.7907 138.822 24.2407 139.512C26.0774 142.381 28.4105 144.9 31.1307 146.952C35.0649 149.913 39.8016 151.617 44.7207 151.842C48.3992 152.008 52.0783 151.527 55.5907 150.422C59.168 149.322 62.602 147.801 65.8207 145.892C67.8946 144.673 69.8978 143.337 71.8207 141.892C74.411 139.953 76.8759 137.852 79.2007 135.602C95.3107 120.102 107.991 95.8515 112.641 71.7215C113.307 68.1282 113.814 64.5549 114.161 61.0015C114.431 58.0015 114.561 55.1015 114.551 52.2015C114.56 48.0237 114.219 43.8524 113.531 39.7315V39.7315Z" fill="#B0BEC5"/>
<path opacity="0.05" d="M18.5906 89.7917C18.2206 91.7217 17.8906 93.6518 17.5906 95.5818C17.2906 97.5118 17.1106 99.3817 16.9606 101.262C16.734 103.928 16.624 106.595 16.6307 109.262C16.6307 111.422 16.7307 113.522 16.8907 115.542C17.0307 117.302 17.2307 118.992 17.4807 120.632C17.7307 122.272 18.0406 123.842 18.4006 125.362C19.3375 129.552 20.8555 133.591 22.9107 137.362C23.3307 138.102 23.7606 138.822 24.2106 139.512C26.0473 142.381 28.3805 144.901 31.1007 146.952C35.0432 149.919 39.7912 151.623 44.7207 151.842C48.3992 152.008 52.0783 151.527 55.5906 150.422C59.168 149.322 62.602 147.801 65.8207 145.892C67.6307 144.832 69.4007 143.652 71.1607 142.372L18.5906 89.7917Z" fill="black"/>
<path opacity="0.05" d="M19.3506 128.772C20.2382 131.759 21.4452 134.643 22.9506 137.372C23.3706 138.112 23.8006 138.832 24.2506 139.522C26.0873 142.391 28.4204 144.911 31.1406 146.962C34.3679 149.386 38.1486 150.967 42.1406 151.562L19.3506 128.772Z" fill="black"/>
<path opacity="0.25" d="M25.2806 67.0715C23.7106 71.0115 22.3407 75.0715 21.1707 79.0715L78.4306 136.332L79.2106 135.602C81.6801 133.201 84.0169 130.667 86.2106 128.012L25.2806 67.0715Z" fill="white"/>
<path opacity="0.25" d="M44.0007 34.6716C41.3915 37.9237 38.9612 41.3154 36.7207 44.8316L99.7207 107.832C101.721 104.012 103.631 100.012 105.311 96.0116L44.0007 34.6716Z" fill="white"/>
<path opacity="0.25" d="M51.1507 26.7517C49.6407 28.2517 48.1507 29.8317 46.7107 31.4717L106.971 91.7317C107.811 89.4817 108.601 87.2117 109.321 84.9117L51.1507 26.7517Z" fill="white"/>
<path opacity="0.25" d="M114.421 47.8615C114.361 46.6915 114.261 45.5515 114.151 44.4315C114.151 44.0615 114.081 43.6815 114.041 43.3215C114.001 42.9615 113.951 42.5615 113.901 42.1815C113.791 41.3515 113.671 40.5315 113.531 39.7315C112.844 35.4648 111.621 31.3019 109.891 27.3415C107.825 22.3984 104.543 18.0574 100.351 14.7215C97.8016 12.7569 94.889 11.3159 91.7807 10.4815C91.0707 10.2915 90.3507 10.1415 89.6107 10.0115C85.9791 9.40785 82.2653 9.50629 78.6707 10.3015C78.1907 10.4015 77.6707 10.5315 77.2107 10.6515L114.421 47.8615Z" fill="white"/>
<path d="M102.091 59.7017C102.091 85.4617 87.0907 115.212 68.0907 127.862C67.2907 128.392 66.4707 128.912 65.6407 129.382C45.5007 141.012 29.1807 128.672 29.1807 101.812C29.1807 74.9517 45.5007 43.7517 65.6407 32.1217C66.4707 31.6517 67.2907 31.2217 68.0907 30.8217C87.0707 21.5317 102.091 33.9417 102.091 59.7017Z" fill="#B0BEC5"/>
<path opacity="0.4" d="M102.091 59.7017C102.091 85.4617 87.0907 115.212 68.0907 127.862C67.2907 128.392 66.4707 128.912 65.6407 129.382C45.5007 141.012 29.1807 128.672 29.1807 101.812C29.1807 74.9517 45.5007 43.7517 65.6407 32.1217C66.4707 31.6517 67.2907 31.2217 68.0907 30.8217C87.0707 21.5317 102.091 33.9417 102.091 59.7017Z" fill="black"/>
<path d="M100.471 60.6417C100.471 61.4617 100.471 62.3017 100.411 63.1417C99.4905 87.1417 85.5005 114.082 67.9505 125.762L67.4805 126.072C66.8605 126.472 66.2405 126.862 65.6105 127.222C62.2582 129.253 58.5423 130.611 54.6705 131.222C46.4905 132.342 39.6705 128.752 35.4105 121.422C32.9305 117.112 31.3405 111.512 30.9005 104.802C30.8105 103.542 30.7705 102.242 30.7705 100.902C30.7705 99.5617 30.7705 98.4317 30.8805 97.1817C31.0271 94.5275 31.3209 91.8834 31.7605 89.2617C34.8405 70.7117 44.7605 51.7817 57.3205 40.4217C59.0723 38.8341 60.9299 37.3674 62.8805 36.0317C63.7805 35.4217 64.6905 34.8417 65.6105 34.3117C66.5305 33.7817 67.1905 33.4417 67.9505 33.0617L68.6105 32.7617C73.8305 30.3317 78.7105 29.6317 83.0205 30.4617C90.3505 31.8717 96.0205 37.7217 98.7105 47.0617C99.9287 51.484 100.521 56.0551 100.471 60.6417V60.6417Z" fill="#B0BEC5"/>
<path opacity="0.7" d="M100.471 60.6417C100.471 61.4617 100.471 62.3017 100.411 63.1417C99.4905 87.1417 85.5005 114.082 67.9505 125.762L67.4805 126.072C66.8605 126.472 66.2405 126.862 65.6105 127.222C62.2582 129.253 58.5423 130.611 54.6705 131.222C46.4905 132.342 39.6705 128.752 35.4105 121.422C32.9305 117.112 31.3405 111.512 30.9005 104.802C30.8105 103.542 30.7705 102.242 30.7705 100.902C30.7705 99.5617 30.7705 98.4317 30.8805 97.1817C31.0271 94.5275 31.3209 91.8834 31.7605 89.2617C34.8405 70.7117 44.7605 51.7817 57.3205 40.4217C59.0723 38.8341 60.9299 37.3674 62.8805 36.0317C63.7805 35.4217 64.6905 34.8417 65.6105 34.3117C66.5305 33.7817 67.1905 33.4417 67.9505 33.0617L68.6105 32.7617C73.8305 30.3317 78.7105 29.6317 83.0205 30.4617C90.3505 31.8717 96.0205 37.7217 98.7105 47.0617C99.9287 51.484 100.521 56.0551 100.471 60.6417V60.6417Z" fill="black"/>
<path d="M94.6307 59.7817C94.6307 58.9417 94.6307 58.1017 94.6307 57.2717C94.6868 52.6821 94.0977 48.1074 92.8807 43.6817C91.3007 38.2317 88.7107 33.9817 85.3807 31.0917C84.5935 30.819 83.7882 30.6018 82.9707 30.4417C78.6607 29.6117 73.7807 30.3117 68.5607 32.7417L67.9007 33.0417C67.1407 33.4217 66.3507 33.8417 65.5607 34.2917C64.7707 34.7417 63.7307 35.4017 62.8307 36.0117C60.88 37.3474 59.0224 38.8141 57.2707 40.4017C44.7207 51.7617 34.8407 70.6917 31.7207 89.2417C31.2811 91.8634 30.9873 94.5075 30.8407 97.1617C30.7607 98.4117 30.7307 99.6417 30.7307 100.882C30.7307 102.122 30.7307 103.522 30.8607 104.782C31.3007 111.492 32.8607 117.092 35.3707 121.402C36.5757 123.524 38.1271 125.431 39.9607 127.042C42.8159 128.006 45.8591 128.28 48.8407 127.842C52.7145 127.227 56.4328 125.869 59.7907 123.842C60.4207 123.482 61.0407 123.092 61.6507 122.692L62.1307 122.382C79.7207 110.712 93.7207 83.7917 94.6307 59.7817Z" fill="#B0BEC5"/>
<path opacity="0.6" d="M94.6307 59.7817C94.6307 58.9417 94.6307 58.1017 94.6307 57.2717C94.6868 52.6821 94.0977 48.1074 92.8807 43.6817C91.3007 38.2317 88.7107 33.9817 85.3807 31.0917C84.5935 30.819 83.7882 30.6018 82.9707 30.4417C78.6607 29.6117 73.7807 30.3117 68.5607 32.7417L67.9007 33.0417C67.1407 33.4217 66.3507 33.8417 65.5607 34.2917C64.7707 34.7417 63.7307 35.4017 62.8307 36.0117C60.88 37.3474 59.0224 38.8141 57.2707 40.4017C44.7207 51.7617 34.8407 70.6917 31.7207 89.2417C31.2811 91.8634 30.9873 94.5075 30.8407 97.1617C30.7607 98.4117 30.7307 99.6417 30.7307 100.882C30.7307 102.122 30.7307 103.522 30.8607 104.782C31.3007 111.492 32.8607 117.092 35.3707 121.402C36.5757 123.524 38.1271 125.431 39.9607 127.042C42.8159 128.006 45.8591 128.28 48.8407 127.842C52.7145 127.227 56.4328 125.869 59.7907 123.842C60.4207 123.482 61.0407 123.092 61.6507 122.692L62.1307 122.382C79.7207 110.712 93.7207 83.7917 94.6307 59.7817Z" fill="black"/>
<path d="M89.6106 10.0117C86.4926 9.52644 83.3152 9.567 80.2106 10.1317C78.6718 10.436 77.1497 10.8199 75.6506 11.2817C75.2715 11.379 74.8976 11.4958 74.5306 11.6317L73.4406 12.0617L71.2406 12.9317C68.3662 14.1888 65.6087 15.698 63.0006 17.4417C61.6906 18.3317 60.4106 19.1917 59.2006 20.2017C57.9906 21.2117 56.6806 22.1417 55.5606 23.2017C54.4406 24.2617 53.1906 25.2917 52.0906 26.4017C50.9906 27.5117 49.8706 28.6117 48.8206 29.7817L45.7206 33.2917L42.7206 37.0117L39.9406 40.8117C39.0306 42.0917 38.1906 43.4217 37.3106 44.7217C35.6306 47.3717 33.9906 50.0517 32.5206 52.8217L31.3906 54.8917L30.3906 57.0017C29.6906 58.4117 28.9706 59.8017 28.3906 61.2517C27.0806 64.1017 25.9106 67.0217 24.7606 69.9417L23.1906 74.3817C22.6906 75.8717 22.2606 77.3817 21.7906 78.8817C21.3206 80.3817 20.9706 81.8817 20.5506 83.4217C20.1306 84.9617 19.8106 86.4217 19.4806 88.0017L18.9906 90.3117L18.6006 92.6317C18.3506 94.1917 18.0606 95.7017 17.9206 97.2817C17.7806 98.8617 17.5506 100.422 17.4106 101.972C17.2706 103.522 17.1806 105.102 17.1306 106.662C17.1306 107.452 17.1306 108.232 17.0806 109.022C17.0306 109.812 17.1306 110.582 17.1506 111.362C17.2206 112.932 17.2306 114.542 17.3506 116.062L17.8706 120.742L18.7406 125.382V125.442V125.382C19.6492 129.529 21.1123 133.535 23.0906 137.292C23.6206 138.192 24.1406 139.142 24.7206 140.022C25.3006 140.902 25.9406 141.762 26.6106 142.582C27.9566 144.231 29.4902 145.718 31.1806 147.012C29.4574 145.752 27.8868 144.295 26.5006 142.672C25.8106 141.862 25.1506 141.022 24.5006 140.142C23.8506 139.262 23.3706 138.342 22.7906 137.432C20.7033 133.693 19.1483 129.681 18.1706 125.512V125.442V125.492L17.2406 120.852L16.6506 116.142C16.5006 114.522 16.4806 112.982 16.3906 111.402C16.3906 110.602 16.3106 109.842 16.2906 109.022C16.2706 108.202 16.2906 107.432 16.2906 106.642C16.2906 105.062 16.4006 103.482 16.5106 101.902C16.6206 100.322 16.8406 98.7617 17.0006 97.1817C17.1606 95.6017 17.4206 94.0317 17.6706 92.4817L18.0506 90.1417L18.5306 87.8217C18.8506 86.2717 19.1706 84.7217 19.5906 83.1917C20.0106 81.6617 20.3306 80.1117 20.8206 78.6117C21.3106 77.1117 21.7106 75.6117 22.2106 74.0717L23.7806 69.5917L25.5206 65.1817C26.0806 63.7017 26.7906 62.2817 27.4206 60.8317C28.0506 59.3817 28.7806 57.9717 29.4806 56.5617L30.5406 54.4317L31.7206 52.3117C33.2206 49.5217 34.8806 46.8217 36.5906 44.1617C37.4706 42.8517 38.3306 41.5217 39.2506 40.2317L42.0706 36.4117L45.0706 32.7317C46.0706 31.5317 47.1806 30.3717 48.2406 29.2017C49.3006 28.0317 50.4806 26.9517 51.5906 25.8217C52.7006 24.6917 53.9406 23.7117 55.1106 22.6517C56.2806 21.5917 57.5806 20.6517 58.8206 19.7017C60.065 18.7179 61.3601 17.7999 62.7006 16.9517C65.3539 15.2118 68.1706 13.7348 71.1106 12.5417L73.3206 11.7117L74.4306 11.3017C74.8079 11.1745 75.1918 11.0677 75.5806 10.9817C77.0999 10.5436 78.6423 10.1897 80.2006 9.92173C83.3201 9.4237 86.5012 9.45413 89.6106 10.0117V10.0117Z" fill="#F5F5F5"/>
<path d="M57.5205 43.4417L63.5405 46.9317L72.1905 41.9317L66.1705 38.4517L57.5205 43.4417Z" fill="#B0BEC5"/>
<path opacity="0.2" d="M57.5205 43.4417L63.5405 46.9317L72.1905 41.9317L66.1705 38.4517L57.5205 43.4417Z" fill="black"/>
<path d="M60.5306 48.6616L54.5106 45.1816L45.8506 50.1716L51.8806 53.6616L60.5306 48.6616Z" fill="#B0BEC5"/>
<path opacity="0.2" d="M60.5306 48.6616L54.5106 45.1816L45.8506 50.1716L51.8806 53.6616L60.5306 48.6616Z" fill="black"/>
<path d="M45.8506 56.3816L51.8806 59.8616L45.8506 63.3516L39.8206 59.8616L45.8506 56.3816Z" fill="#B0BEC5"/>
<path opacity="0.2" d="M45.8506 56.3816L51.8806 59.8616L45.8506 63.3516L39.8206 59.8616L45.8506 56.3816Z" fill="black"/>
<path d="M39.8206 71.3916L45.8506 74.8816V63.3516L39.8206 59.8616V71.3916Z" fill="#B0BEC5"/>
<path opacity="0.35" d="M39.8206 71.3916L45.8506 74.8816V63.3516L39.8206 59.8616V71.3916Z" fill="black"/>
<path d="M45.8506 50.1716V56.3816L51.8806 59.8616V53.6616L45.8506 50.1716Z" fill="#B0BEC5"/>
<path opacity="0.35" d="M45.8506 50.1716V56.3816L51.8806 59.8616V53.6616L45.8506 50.1716Z" fill="black"/>
<path d="M57.5205 43.4417V46.9217L60.5305 48.6617V54.8717L63.5405 53.1317V46.9317L57.5205 43.4417Z" fill="#B0BEC5"/>
<path opacity="0.35" d="M57.5205 43.4417V46.9217L60.5305 48.6617V54.8717L63.5405 53.1317V46.9317L57.5205 43.4417Z" fill="black"/>
<path d="M39.8206 107.102L45.8506 110.592L49.9506 108.222L43.9305 104.742L39.8206 107.102Z" fill="#B0BEC5"/>
<path opacity="0.2" d="M39.8206 107.102L45.8506 110.592L49.9506 108.222L43.9305 104.742L39.8206 107.102Z" fill="black"/>
<path d="M43.9307 104.742L49.9507 108.222V72.5117L45.8507 74.8817L43.9307 73.7717V104.742Z" fill="#B0BEC5"/>
<path opacity="0.45" d="M43.9307 104.742L49.9507 108.222V72.5117L45.8507 74.8817L43.9307 73.7717V104.742Z" fill="black"/>
<path d="M39.8206 107.102L45.8506 110.592V122.132L39.8206 118.642V107.102Z" fill="#B0BEC5"/>
<path opacity="0.35" d="M39.8206 107.102L45.8506 110.592V122.132L39.8206 118.642V107.102Z" fill="black"/>
<path d="M51.8805 118.642V123.712L47.4905 121.182L51.8805 118.642Z" fill="#B0BEC5"/>
<path opacity="0.45" d="M51.8805 118.642V123.712L47.4905 121.182L51.8805 118.642Z" fill="black"/>
<path d="M63.5405 111.912V116.982L60.5305 115.242V113.652L63.5405 111.912Z" fill="#B0BEC5"/>
<path opacity="0.45" d="M63.5405 111.912V116.982L60.5305 115.242V113.652L63.5405 111.912Z" fill="black"/>
<path d="M74.9904 47.3017C75.3472 47.2396 75.7083 47.2061 76.0704 47.2017C77.204 47.1621 78.3281 47.4207 79.3304 47.9517L73.4804 44.5617C73.0715 44.3272 72.6392 44.1361 72.1904 43.9917V48.2017C72.7224 47.9473 73.2743 47.7366 73.8404 47.5717C74.1135 47.4909 74.3905 47.4242 74.6704 47.3717L74.9904 47.3017Z" fill="#B0BEC5"/>
<path opacity="0.2" d="M74.9904 47.3017C75.3472 47.2396 75.7083 47.2061 76.0704 47.2017C77.204 47.1621 78.3281 47.4207 79.3304 47.9517L73.4804 44.5617C73.0715 44.3272 72.6392 44.1361 72.1904 43.9917V48.2017C72.7224 47.9473 73.2743 47.7366 73.8404 47.5717C74.1135 47.4909 74.3905 47.4242 74.6704 47.3717L74.9904 47.3017Z" fill="black"/>
<path d="M76.7206 85.9018V86.9018C76.7206 90.1518 74.7206 93.9018 72.3006 95.3418L60.1606 102.342L58.5906 103.242V96.2418L66.2906 91.8018C68.6906 90.4018 70.6706 86.6818 70.7106 83.4618L71.2406 83.1518L72.3006 82.5318C74.7206 81.1518 76.7206 82.6618 76.7206 85.9018Z" fill="#B0BEC5"/>
<path opacity="0.45" d="M76.7206 85.9018V86.9018C76.7206 90.1518 74.7206 93.9018 72.3006 95.3418L60.1606 102.342L58.5906 103.242V96.2418L66.2906 91.8018C68.6906 90.4018 70.6706 86.6818 70.7106 83.4618L71.2406 83.1518L72.3006 82.5318C74.7206 81.1518 76.7206 82.6618 76.7206 85.9018Z" fill="black"/>
<path d="M75.2006 63.2018V64.1018C75.2006 67.0018 73.4306 70.3818 71.2006 71.6418L58.5505 78.9418V71.9418L65.1706 68.1218C66.2648 67.3472 67.1795 66.3461 67.8525 65.1866C68.5254 64.027 68.9409 62.7362 69.0706 61.4018L71.2006 60.1718C73.4306 59.0118 75.2006 60.2918 75.2006 63.2018Z" fill="#B0BEC5"/>
<path opacity="0.45" d="M75.2006 63.2018V64.1018C75.2006 67.0018 73.4306 70.3818 71.2006 71.6418L58.5505 78.9418V71.9418L65.1706 68.1218C66.2648 67.3472 67.1795 66.3461 67.8525 65.1866C68.5254 64.027 68.9409 62.7362 69.0706 61.4018L71.2006 60.1718C73.4306 59.0118 75.2006 60.2918 75.2006 63.2018Z" fill="black"/>
<path d="M81.3106 70.6516C82.9165 67.0122 83.78 63.089 83.8506 59.1116V58.2016C83.8506 49.4316 78.7406 45.0716 72.1906 48.2016V41.9316L63.5406 46.9316V53.1316L60.5406 54.8716V48.6616L51.8906 53.6616V59.8616L45.8906 63.3516V74.8816L49.9906 72.5116V108.222L45.8906 110.592V122.122L51.8906 118.642V123.712L60.5406 118.712V113.642L63.5406 111.902V117.012L72.1906 112.012V106.912L72.3206 106.842C79.5206 102.682 85.3906 91.4816 85.3906 81.8416V80.8416C85.3906 76.1716 83.9006 72.4416 81.3106 70.6516ZM75.2006 63.2016V64.1016C75.2006 67.0016 73.4306 70.3916 71.2006 71.6416L58.5506 78.9516V67.5216L60.1206 66.6116L71.2006 60.2116C73.4306 59.0116 75.2006 60.3016 75.2006 63.2016V63.2016ZM58.6006 90.4816L71.2506 83.1816L72.3206 82.5616C74.7506 81.1516 76.7406 82.6516 76.7406 85.9016V86.9016C76.7406 90.1516 74.7406 93.9016 72.3206 95.3516L60.1706 102.352L58.6006 103.262V90.4816Z" fill="#B0BEC5"/>
<path opacity="0.3" d="M72.1905 48.2017V44.9317L70.2905 43.0317L64.4805 46.3917L83.1405 65.0117C83.5964 63.0641 83.8346 61.0719 83.8505 59.0717V58.1617C83.8505 57.5817 83.8505 57.0217 83.7805 56.4817L74.6305 47.3317C73.7844 47.52 72.9648 47.8122 72.1905 48.2017V48.2017Z" fill="white"/>
<path opacity="0.3" d="M75.1906 63.0117C75.1906 63.0717 75.1906 63.1417 75.1906 63.2117V64.1117C75.1906 67.0117 73.4206 70.4017 71.1906 71.6517L68.0806 73.4517L84.2006 89.5717C84.923 87.0712 85.3031 84.4843 85.3306 81.8817V80.8817C85.3306 76.1417 83.8406 72.4117 81.2506 70.6217C81.4006 70.2617 81.5406 69.8917 81.6906 69.5217L75.1906 63.0117Z" fill="white"/>
<path opacity="0.3" d="M62.2107 101.152L60.1707 102.322L58.6007 103.232V97.5416L49.9507 88.8916V105.002L60.5307 115.582V113.652L63.5407 111.912V116.982L72.1907 111.982V111.132L62.2107 101.152Z" fill="white"/>
<path opacity="0.25" d="M60.8906 66.1916L71.2506 60.1916C71.5054 60.0494 71.7733 59.9322 72.0506 59.8416L63.5406 51.3316V53.1116L60.5406 54.8516V48.6416L51.8906 53.6416V57.1616L60.8906 66.1916Z" fill="white"/>
<path d="M49.9506 72.5116V108.222C50.0506 106.732 50.1006 105.222 50.1706 103.762C50.2406 102.302 50.2606 100.762 50.3106 99.2915C50.4006 96.2915 50.4406 93.3416 50.4506 90.3716C50.4606 87.4016 50.4506 84.3715 50.4506 81.4415C50.4506 79.9515 50.4006 78.4416 50.3606 76.9816L50.2306 72.5116V72.0916L49.8906 72.3116C48.5606 73.1716 47.2206 74.0015 45.8906 74.8815L49.9506 72.5116Z" fill="#F5F5F5"/>
<path d="M54.1906 52.6616C54.9406 52.3116 55.6906 51.9316 56.4306 51.5516C57.1706 51.1716 57.9006 50.7616 58.6206 50.3516C59.1106 50.0816 59.6206 49.7916 60.0806 49.5016C60.0806 50.2616 60.1406 51.0116 60.1906 51.7716C60.1906 52.2816 60.2706 52.7716 60.3306 53.3216C60.3906 53.8716 60.4406 54.3216 60.5306 54.8716V48.6616L51.8806 53.6616C52.2706 53.5116 52.6606 53.3416 53.0406 53.1716C53.4206 53.0016 53.8106 52.8416 54.1906 52.6616Z" fill="#F5F5F5"/>
<path d="M65.8505 45.9316C66.6005 45.5716 67.3505 45.2016 68.0905 44.8116C69.3305 44.1716 70.5405 43.4716 71.7405 42.7616C71.7405 43.5316 71.7905 44.3016 71.8505 45.0716C71.8505 45.5916 71.9305 46.0716 71.9905 46.6316C72.0505 47.1916 72.1005 47.6316 72.1905 48.2016V41.9316L63.5405 46.9316C63.9305 46.7816 64.3205 46.6116 64.7005 46.4416C65.0805 46.2716 65.4705 46.1116 65.8505 45.9316Z" fill="#F5F5F5"/>
<path d="M75.2006 63.2017V64.1017C75.2006 67.0017 73.4306 70.3917 71.2006 71.6417L58.5706 78.9417L59.7705 78.3717C60.5105 77.9917 61.6005 77.4817 62.8705 76.8017C64.1405 76.1217 65.6305 75.3517 67.2105 74.4817L69.6306 73.1317L70.8705 72.4217L71.4905 72.0717C71.7165 71.9356 71.9337 71.7853 72.1406 71.6217C72.9414 70.9829 73.6192 70.2035 74.1406 69.3217C74.6316 68.4893 75.0083 67.5946 75.2606 66.6617C75.5025 65.7899 75.607 64.8857 75.5706 63.9817C75.5893 63.1746 75.4882 62.3691 75.2705 61.5917C75.0824 60.8987 74.6395 60.3022 74.0305 59.9217C73.5604 59.6453 73.0035 59.556 72.4706 59.6717C72.1436 59.7423 71.8298 59.8638 71.5406 60.0317L71.2505 60.2117C73.4405 59.0117 75.2006 60.3117 75.2006 63.2017Z" fill="#F5F5F5"/>
<path d="M77.1106 86.6417C77.1214 85.7498 76.9897 84.862 76.7206 84.0116C76.4976 83.2595 76.0019 82.6176 75.3306 82.2116C74.8127 81.9151 74.2017 81.8258 73.6206 81.9616C73.2691 82.0393 72.9318 82.1709 72.6206 82.3516L72.2906 82.5516H72.3706C74.7706 81.2116 76.7206 82.7016 76.7206 85.9216V86.9216C76.7206 90.1716 74.7206 93.9216 72.3006 95.3716L60.1506 102.372L58.6006 103.272L59.8906 102.642C60.7106 102.212 61.8906 101.642 63.3006 100.882C64.7106 100.122 66.3006 99.2816 68.0706 98.3216L70.7306 96.8317C71.6879 96.3278 72.6099 95.7599 73.4906 95.1316C75.101 93.6607 76.2419 91.7476 76.7706 89.6316C77.0329 88.6576 77.1475 87.6497 77.1106 86.6417Z" fill="#F5F5F5"/>
<path d="M85.3906 81.8716V80.8716C85.3906 76.1316 83.9006 72.4016 81.3106 70.6116L81.6606 70.9216C81.9857 71.2314 82.2866 71.5657 82.5606 71.9216C83.495 73.1611 84.1531 74.5864 84.4906 76.1016C84.7399 77.1045 84.8906 78.1293 84.9406 79.1616C85.0001 80.3208 85.0001 81.4823 84.9406 82.6416C84.925 83.2506 84.8749 83.8582 84.7906 84.4616C84.7206 85.0716 84.6406 85.6916 84.5206 86.3116C84.4006 86.9316 84.2906 87.5616 84.1306 88.1816C83.9706 88.8016 83.8206 89.4216 83.6206 90.0316C83.4206 90.6416 83.2506 91.2616 83.0306 91.8616C82.8106 92.4616 82.5906 93.0616 82.3406 93.6416C82.0906 94.2216 81.8406 94.8016 81.5706 95.3616C81.3161 95.926 81.0324 96.4767 80.7206 97.0116C80.4406 97.5516 80.1506 98.0616 79.8406 98.5616C79.5306 99.0616 79.2606 99.5616 78.9406 100.002C78.3641 100.866 77.7433 101.701 77.0806 102.502C76.4406 103.232 75.8606 103.902 75.2806 104.442C74.8006 104.92 74.2966 105.374 73.7706 105.802C72.8606 106.492 72.3306 106.872 72.3306 106.872C79.5206 102.682 85.3906 91.4816 85.3906 81.8716Z" fill="#F5F5F5"/>
<path d="M55.9806 120.822C54.5547 121.698 53.1853 122.663 51.8806 123.712L60.5306 118.712V113.642C60.2812 115.227 60.1309 116.827 60.0806 118.432C58.6806 119.178 57.314 119.975 55.9806 120.822Z" fill="#F5F5F5"/>
<path d="M72.1905 106.912C71.9605 108.522 71.8605 110.122 71.7805 111.722C70.3605 112.442 68.9805 113.232 67.6305 114.072C66.2014 114.946 64.8348 115.918 63.5405 116.982L72.1905 111.982V106.912Z" fill="#F5F5F5"/>
</svg>
