<svg width="86" height="86" viewBox="0 0 86 86" fill="none" xmlns="http://www.w3.org/2000/svg">
<path d="M43.0404 78.6892C60.7963 78.6892 75.1904 64.2951 75.1904 46.5392C75.1904 28.7832 60.7963 14.3892 43.0404 14.3892C25.2844 14.3892 10.8904 28.7832 10.8904 46.5392C10.8904 64.2951 25.2844 78.6892 43.0404 78.6892Z" fill="black"/>
<path d="M71.8494 56.038C79.255 39.9002 72.176 20.8144 56.0381 13.4089C39.9002 6.00332 20.8145 13.0823 13.4089 29.2202C6.00338 45.3581 13.0823 64.4438 29.2202 71.8494C45.3581 79.2549 64.4439 72.1759 71.8494 56.038Z" fill="#263238"/>
<path d="M65.8326 50.1139C70.0497 37.6119 63.0746 23.9711 50.2534 19.6463C37.4322 15.3216 23.6199 21.9505 19.4028 34.4525C15.1857 46.9545 22.1607 60.5953 34.9819 64.9201C47.8032 69.2448 61.6155 62.6159 65.8326 50.1139Z" fill="#BBBFCA"/>
<path d="M35.0503 64.829C29.0121 62.7893 24.0069 58.4761 21.0978 52.8054C18.1887 47.1347 17.6049 40.5532 19.4703 34.459C19.3903 34.679 19.3003 34.899 19.2303 35.119C17.1536 41.2733 17.6068 48.0005 20.4902 53.8207C23.3736 59.6409 28.4509 64.0773 34.6053 66.154C40.7596 68.2306 47.4869 67.7774 53.307 64.894C59.1272 62.0107 63.5636 56.9333 65.6403 50.779L65.8503 50.109C63.6417 56.0884 59.1888 60.971 53.4376 63.7196C47.6864 66.4682 41.0902 66.8662 35.0503 64.829V64.829Z" fill="#393E46"/>
<path d="M50.2204 19.739C56.2604 21.7766 61.268 26.089 64.179 31.7599C67.0901 37.4309 67.6754 44.0134 65.8104 50.109L66.0504 49.449C68.1257 43.2933 67.6707 36.5653 64.7855 30.7451C61.9002 24.9249 56.8211 20.4893 50.6654 18.414C44.5097 16.3386 37.7818 16.7936 31.9616 19.6789C26.1414 22.5641 21.7057 27.6433 19.6304 33.799C19.5604 34.019 19.5004 34.239 19.4304 34.459C21.6369 28.4803 26.0879 23.5978 31.8375 20.8491C37.587 18.1004 44.1819 17.7021 50.2204 19.739Z" fill="black"/>
<path d="M52.4904 52.9691C53.5904 49.7091 52.7404 47.0791 50.7504 45.4391C51.8477 45.1385 52.8483 44.5585 53.6545 43.7558C54.4607 42.9531 55.045 41.955 55.3504 40.8591C56.4304 37.6491 55.4104 34.7691 52.2904 32.8591L53.6304 28.8591L49.9704 27.6291L48.7304 31.3891L46.6604 30.6891L47.9004 27.0191L44.2504 25.7891L43.0504 29.3891L39.7204 28.2691L37.4004 27.4891L36.1704 31.1391L38.4904 31.9191L32.4904 49.6891L29.9204 48.8191L28.6904 52.4691L31.2504 53.3391L34.5804 54.4591L33.1404 58.7391L36.7904 59.9691L38.2304 55.6891L40.3104 56.3891L38.8604 60.6691L42.5204 61.8991L44.0104 57.4791C48.2904 58.3891 51.2304 56.6791 52.4904 52.9691ZM43.0504 33.5191L48.0504 35.1891C50.8004 36.1191 51.9704 37.7891 51.1804 40.1191C50.3904 42.4491 48.4704 43.0291 45.7204 42.1191L40.0504 40.2091L42.3804 33.2991L43.0504 33.5191ZM42.7904 53.2191L36.7904 51.2191L36.3704 51.0791L38.8104 43.8491L45.2104 46.0091C48.2104 47.0091 49.4404 48.6691 48.6004 51.1791C47.7604 53.6891 45.8104 54.2291 42.8204 53.2191H42.7904Z" fill="black"/>
<path d="M46.1305 26.389C46.0505 26.619 44.5405 26.329 42.2905 25.709L43.0505 25.389C42.7505 26.469 42.3705 27.739 41.9205 29.109L41.7105 29.759L41.0405 29.539L40.0405 29.219C38.3105 28.629 36.7205 28.049 35.4105 27.529L36.1505 27.169C35.2805 29.329 34.5905 30.709 34.3705 30.629C34.1505 30.549 34.4205 29.039 35.0505 26.789L35.1906 26.269L35.7805 26.429C37.1405 26.809 38.7805 27.309 40.4805 27.889L41.4805 28.219L40.5905 28.659C41.0705 27.309 41.5306 26.059 41.9406 25.019L42.1705 24.459L42.6805 24.659C44.8305 25.469 46.2005 26.159 46.1305 26.389Z" fill="#393E46"/>
<path d="M52.6003 28.6389C52.4703 29.0089 51.3903 28.9689 50.1703 28.5589C48.9503 28.1489 48.0603 27.5589 48.1703 27.1489C48.2803 26.7389 49.3803 26.8189 50.6003 27.2389C51.8203 27.6589 52.7203 28.2789 52.6003 28.6389Z" fill="#393E46"/>
<path d="M30.5802 48.809C30.2102 48.679 31.2302 44.679 32.8502 39.869C34.4702 35.059 36.0902 31.269 36.4502 31.389C36.8102 31.509 35.8002 35.509 34.1802 40.319C32.5602 45.129 30.9402 48.929 30.5802 48.809Z" fill="#393E46"/>
<path d="M45.7605 42.159C45.6305 42.529 43.9505 42.289 42.0105 41.639C40.0705 40.989 38.5805 40.149 38.7105 39.779C38.8405 39.409 40.5105 39.649 42.4605 40.309C44.4105 40.969 45.8805 41.799 45.7605 42.159Z" fill="#393E46"/>
<path d="M42.2305 53.0489C42.1105 53.4189 40.4305 53.1889 38.4905 52.5289C36.5505 51.8689 35.0605 51.0389 35.1905 50.6789C35.3205 50.3189 36.9905 50.5389 38.9305 51.1989C40.8705 51.8589 42.3605 52.6889 42.2305 53.0489Z" fill="#393E46"/>
</svg>
